Motion_kv06_l
version=1
nRows=15
nColumns=43
inDegrees=yes
endheader
time	pelvis_tilt	pelvis_list	pelvis_rotation	pelvis_tx	pelvis_ty	pelvis_tz	hip_flexion_r	hip_adduction_r	hip_rotation_r	knee_angle_r	ankle_angle_r	subtalar_angle_r	mtp_angle_r	hip_flexion_l	hip_adduction_l	hip_rotation_l	knee_angle_l	ankle_angle_l	subtalar_angle_l	mtp_angle_l	lumbar_extension	lumbar_bending	lumbar_rotation	neck_flexion	neck_lateral_bending	neck_rotation	arm_flex_r	arm_add_r	arm_rot_r	elbow_flex_r	pro_sup_r	wrist_flex_r	wrist_dev_r	hand_finger_flex_r	arm_flex_l	arm_add_l	arm_rot_l	elbow_flex_l	pro_sup_l	wrist_flex_l	wrist_dev_l	hand_finger_flex_l
      0.90500000	     -2.70246879	    -12.09020007	     87.32290202	      0.00413969	      1.30638185	      0.77107240	     53.82140691	     -9.34015327	     -5.81471250	    -29.34798082	    -18.56707841	      1.52216354	      6.86440598	     52.02852627	     -6.47607706	     -7.14290745	    -28.29726764	    -11.71363398	     -7.68151906	    -12.36054256	    -37.71877045	     -4.55701949	      5.71798531	      0.87066058	      1.24986020	      1.30761987	    284.02883911	    -45.92341326	    314.78692968	    104.45537390	    118.20939491	     -5.53205171	     -8.09808838	    -30.13252296	    -66.72007378	    -37.17877990	    -44.55649566	    117.27637197	    119.03861139	    -47.76312969	     -3.36585964	     84.90345866
      0.90750000	     -2.42761112	    -11.67852017	     87.53608938	      0.00360256	      1.30102945	      0.76517792	     52.75097659	     -9.40812751	     -6.39985448	    -28.65362871	    -18.62736250	      1.68205766	      6.79223732	     51.12986936	     -6.54018396	     -7.06834945	    -27.72642082	    -11.97777913	     -7.83854176	    -11.62115819	    -37.44979887	     -4.10572234	      5.90662725	     -0.17944484	      0.94008839	      1.06727107	    282.68535285	    -44.90948724	    314.30286203	    104.60406972	    118.41079764	     -5.87823250	     -8.29989005	    -29.95502050	    -67.87938103	    -36.65010278	    -44.33929919	    117.23012040	    119.07431502	    -50.66548857	     -4.02642280	     86.25213661
      0.91000000	     -2.39338853	    -11.53177427	     87.54908500	      0.00352199	      1.29483680	      0.75957895	     52.18155453	     -9.46589683	     -6.57452053	    -28.16343650	    -18.72960844	      1.68772348	      6.75964222	     50.53625374	     -6.60380771	     -7.30221993	    -27.24109010	    -12.16818715	     -7.83181670	    -11.57170095	    -36.81599297	     -4.04794165	      6.05352173	     -1.35303799	      0.94873569	      0.90500656	    281.48403883	    -44.04008995	    314.11005171	    104.63819836	    118.48555613	     -5.99097616	     -8.39106022	    -29.95743317	    -69.41212361	    -36.02706473	    -44.80874873	    117.60776238	    119.14567821	    -50.92852657	     -4.10818234	     86.46289845
      0.91250000	     -2.33554126	    -11.35190270	     87.57286903	      0.00339351	      1.28874963	      0.75385645	     51.53524368	     -9.51076530	     -6.76684791	    -27.63214660	    -18.78825785	      1.71034236	      6.72884059	     49.88858136	     -6.67282992	     -7.53196044	    -26.73322872	    -12.33840790	     -7.84905859	    -11.50975007	    -36.21305211	     -3.95218854	      6.19199469	     -2.63516114	      0.94105369	      0.73398371	    280.34552102	    -43.18102685	    313.96904532	    104.64274037	    118.58670165	     -6.15170522	     -8.51441035	    -29.96609321	    -70.84628812	    -35.36550783	    -45.15000100	    117.91131641	    119.26204463	    -51.33324105	     -4.23903789	     86.61562237
      0.91500000	     -2.26156693	    -11.16144150	     87.61056794	      0.00325838	      1.28268468	      0.74810872	     50.85699252	     -9.54655816	     -6.97500039	    -27.07882425	    -18.80554793	      1.75378504	      6.70233255	     49.22288154	     -6.74282279	     -7.74217046	    -26.21617312	    -12.49137246	     -7.86514727	    -11.43733347	    -35.63483796	     -3.82965654	      6.33418172	     -3.90166895	      0.91745285	      0.57050229	    279.25179228	    -42.29823665	    313.86078269	    104.62258959	    118.69833411	     -6.36092047	     -8.65262311	    -29.97828535	    -72.23294958	    -34.70600620	    -45.42753025	    118.17474939	    119.39999870	    -51.83286881	     -4.40389155	     86.73152913
      0.91750000	     -2.13983780	    -10.93727573	     87.68612750	      0.00310383	      1.27683395	      0.74218620	     50.06523633	     -9.56428608	     -7.22607759	    -26.44655006	    -18.75169703	      1.85782047	      6.67834770	     48.47605019	     -6.81948160	     -7.93459255	    -25.62930838	    -12.58633779	     -7.88440689	    -11.27848850	    -35.09303473	     -3.63507974	      6.47506586	     -5.29958787	      0.85859218	      0.38141212	    278.26249232	    -41.38670997	    313.83077856	    104.53466162	    118.84820271	     -6.72095539	     -8.84890854	    -29.96479117	    -73.40952193	    -34.00027189	    -45.55974112	    118.28931666	    119.56939566	    -52.62858926	     -4.63478006	     86.84265058
      0.92000000	     -2.06948616	    -10.75887254	     87.72993059	      0.00296694	      1.27056859	      0.73657793	     49.43219600	     -9.60002372	     -7.42750610	    -25.94422538	    -18.74145174	      1.91514940	      6.66177609	     47.87603187	     -6.88211875	     -8.09074183	    -25.18165435	    -12.74412975	     -7.85819614	    -11.20121441	    -34.55307814	     -3.51032660	      6.62565756	     -6.31604969	      0.83215748	      0.26818330	    277.18945816	    -40.44920844	    313.74637164	    104.52194683	    118.93774580	     -6.97982236	     -8.99460904	    -29.95994124	    -74.84813790	    -33.39583373	    -45.79654221	    118.57466341	    119.67513338	    -53.09022994	     -4.81751794	     86.95834507
      0.92250000	     -1.97722065	    -10.57808371	     87.78902873	      0.00287113	      1.26442689	      0.73081875	     48.73628773	     -9.61198170	     -7.62426016	    -25.36504121	    -18.67859014	      1.98279897	      6.65493196	     47.21585795	     -6.94977065	     -8.26018858	    -24.65259683	    -12.85354580	     -7.84769307	    -11.10710281	    -33.98966784	     -3.35262797	      6.77069210	     -7.58523165	      0.80049105	      0.13589112	    276.22284633	    -39.51480773	    313.74589545	    104.44047151	    119.04421064	     -7.29688432	     -9.20092771	    -29.95126574	    -76.11544453	    -32.74440562	    -45.96146077	    118.75284927	    119.76098930	    -53.57270585	     -5.03647981	     87.04877193
      0.92500000	     -1.88169689	    -10.39711691	     87.85427331	      0.00271940	      1.25828148	      0.72503040	     48.03844161	     -9.62544257	     -7.81732740	    -24.80147166	    -18.60813703	      2.06266479	      6.65585858	     46.56422500	     -7.00943214	     -8.41033633	    -24.13728008	    -12.94678200	     -7.82369375	    -11.00033136	    -33.44039051	     -3.18608718	      6.91983235	     -8.82786157	      0.76795989	      0.02045817	    275.30556185	    -38.56468663	    313.78536248	    104.30641861	    119.14686577	     -7.66604864	     -9.44464289	    -29.93105790	    -77.32944424	    -32.09381124	    -46.08117863	    118.88702418	    119.81291655	    -54.02838966	     -5.28926274	     87.12971081
      0.92750000	     -1.78651716	    -10.22515900	     87.92983014	      0.00257292	      1.25209333	      0.71926885	     47.34889234	     -9.63753119	     -8.00418177	    -24.23561003	    -18.53010483	      2.14749250	      6.66600654	     45.92040927	     -7.06271455	     -8.54242499	    -23.61595805	    -13.02138633	     -7.78993538	    -10.87816078	    -32.89964675	     -3.01211719	      7.06506473	    -10.05055611	      0.73909299	     -0.07881698	    274.44293610	    -37.58998039	    313.84375420	    104.12199824	    119.23890938	     -8.09135668	     -9.73171906	    -29.89053287	    -78.48791957	    -31.43494090	    -46.17928418	    118.99522841	    119.81428921	    -54.43777518	     -5.58159818	     87.20566709
      0.93000000	     -1.69666308	    -10.05693036	     88.00616015	      0.00242858	      1.24586699	      0.71350703	     46.67287435	     -9.65147576	     -8.17849661	    -23.69076578	    -18.45952395	      2.22609024	      6.68365956	     45.28964424	     -7.10700466	     -8.65435424	    -23.11286172	    -13.09235222	     -7.75079526	    -10.75064224	    -32.36164489	     -2.84259170	      7.20707449	    -11.25528676	      0.71905433	     -0.15901755	    273.62245266	    -36.61535276	    313.95473490	    103.92616787	    119.31946003	     -8.53738095	    -10.06781002	    -29.82491936	    -79.61976550	    -30.78716005	    -46.24899105	    119.09163551	    119.76448617	    -54.76238399	     -5.90940832	     87.27749514
      0.93250000	     -1.61368501	     -9.89798705	     88.08483253	      0.00229235	      1.23959835	      0.70776769	     46.01349068	     -9.66714007	     -8.33863387	    -23.15889357	    -18.39702075	      2.29471440	      6.70789036	     44.67388305	     -7.14243752	     -8.74868102	    -22.61428641	    -13.15371752	     -7.71247719	    -10.62094834	    -31.82672402	     -2.68104250	      7.34096720	    -12.45713261	      0.71031865	     -0.22017324	    272.85113602	    -35.63703809	    314.09126528	    103.68691739	    119.38871152	     -8.99596335	    -10.44170885	    -29.73721091	    -80.71100848	    -30.14151380	    -46.30932824	    119.16174127	    119.66354499	    -55.00093240	     -6.26852256	     87.33999282
      0.93500000	     -1.57924907	     -9.87794477	     88.14974514	      0.00205956	      1.23290675	      0.70244978	     45.60835674	     -9.70479310	     -8.34702418	    -22.74672582	    -18.37410944	      2.31204774	      6.70968185	     44.26891022	     -7.13213286	     -8.80840965	    -22.19199500	    -13.15209188	     -7.70676531	    -10.59443023	    -31.27609986	     -2.56832663	      7.42135716	    -12.90789384	      0.67144513	     -0.21869260	    272.19687045	    -34.52209894	    314.13423113	    103.56127998	    119.38656267	     -9.15300486	    -10.51380761	    -29.74187209	    -81.70881610	    -29.25366796	    -46.40213921	    119.32675156	    119.63860024	    -55.10889729	     -6.37228954	     87.39507446
      0.93750000	     -1.35940677	     -9.48171257	     88.32938756	      0.00193538	      1.22729356	      0.69628861	     44.52210090	     -9.69571335	     -8.96216295	    -22.04681173	    -18.30898970	      2.67172461	      6.89041759	     43.36484140	     -7.23784690	     -8.84672722	    -21.64397539	    -13.20129260	     -7.49594256	     -9.94778745	    -30.97991770	     -2.25495459	      7.64405353	    -14.46276024	      0.71713142	     -0.44323799	    271.53421627	    -33.60963506	    314.61102671	    102.77425511	    119.44809789	    -11.03933975	    -12.16511319	    -28.99115901	    -82.65097174	    -28.84635092	    -46.33866994	    119.12106064	    118.65843832	    -55.27204781	     -8.06172468	     87.33029293
      0.94000000	     -1.34826967	     -9.35653863	     88.39223734	      0.00170005	      1.22080986	      0.69063952	     43.99741843	     -9.74147971	     -8.89787685	    -21.66865277	    -18.26077113	      2.58968845	      6.92262437	     42.82015664	     -7.19818551	     -8.86884847	    -21.21080927	    -13.26367088	     -7.52704320	     -9.83882048	    -30.41354853	     -2.14970120	      7.71954658	    -15.79999174	      0.75273114	     -0.37229689	    270.88309019	    -32.66787754	    314.75032697	    102.56832201	    119.41363867	    -11.20994546	    -12.25370206	    -28.70994307	    -83.63097044	    -28.19619539	    -46.35216198	    119.14050929	    118.51838488	    -55.24140246	     -8.32587568	     87.38215851
